<?xml version="1.0" encoding="utf-8"?>

<!DOCTYPE svg PUBLIC "-//W3C//DTD SVG 1.1//EN" "http://www.w3.org/Graphics/SVG/1.1/DTD/svg11.dtd">
<!-- Uploaded to: SVG Repo, www.svgrepo.com, Generator: SVG Repo Mixer Tools -->
<svg height="800px" width="800px" version="1.1" id="_x32_" xmlns="http://www.w3.org/2000/svg" xmlns:xlink="http://www.w3.org/1999/xlink" 
	 viewBox="0 0 512 512"  xml:space="preserve">
<style type="text/css">
	.st0{fill:#102B3F;}
</style>
<g>
	<path class="st0" d="M273.062,289.751c5.094-2.278,9.62-4.82,19.7-4.82c18.271,0,18.271,8.352,36.538,8.352
		c18.272,0,18.272-8.352,36.546-8.352c18.267,0,18.267,8.352,36.538,8.352c18.275,0,18.275-8.352,36.546-8.352
		c18.267,0,18.267,8.352,36.534,8.352c6.171,0,10.243-0.963,13.65-2.227c4.654-11.726,7.093-24.782,6.831-38.661
		c-0.494-25.996-17.764-44.438-31.539-52.184c-3.058-1.72-7.264-0.382-8.033,2.867c-4.662,19.847-20.058,29.437-47.076,29.437
		h-93.991L273.062,289.751z"/>
	<path class="st0" d="M236.407,131.456c13.28,10.646,32.702,8.51,43.344-4.787c10.65-13.289,8.506-32.703-4.778-43.357
		c-13.306-10.646-32.707-8.502-43.361,4.796C220.961,101.388,223.11,120.802,236.407,131.456z"/>
	<path class="st0" d="M492.864,299.749c-4.483,2.044-8.722,3.99-17.398,3.99c-8.676,0-12.911-1.945-17.399-3.99
		c-4.695-2.152-9.544-4.372-19.135-4.372c-9.594,0-14.444,2.22-19.144,4.372c-4.487,2.044-8.718,3.99-17.402,3.99
		c-8.677,0-12.915-1.945-17.399-3.99c-4.699-2.152-9.552-4.372-19.139-4.372c-9.594,0-14.448,2.22-19.144,4.372
		c-4.488,2.044-8.726,3.99-17.403,3.99c-8.68,0-12.915-1.945-17.402-3.99c-4.692-2.152-9.549-4.372-19.136-4.372
		c-9.594,0-14.448,2.22-19.14,4.372c-4.487,2.044-8.722,3.99-17.398,3.99c-1.401,0-2.527-0.125-3.715-0.216l83.535-113.192
		c6.399,1.238,12.624-2.851,13.986-9.25c1.38-6.491-2.755-12.865-9.237-14.245l-59.95-15.558l-44.965-11.668
		c-0.644-0.142-1.28-0.232-1.912-0.291c-13.446-4.13-28.173,2.31-34.048,15.492l-36.455,77.705H87.599
		c-27.014,0-42.418-9.59-47.08-29.437c-0.764-3.249-4.974-4.587-8.028-2.867c-13.77,7.746-31.04,26.187-31.543,52.184
		c-0.225,11.601,1.437,22.646,4.704,32.81c13.235,1.413,15.005,8.078,31.332,8.078c18.27,0,18.27-8.352,36.542-8.352
		c18.263,0,18.263,8.352,36.534,8.352c18.275,0,18.275-8.352,36.546-8.352c18.267,0,18.267,8.352,36.538,8.352
		c18.263,0,18.263-8.352,36.534-8.352c7.625,0,12.059,1.454,15.974,3.15l41.009-55.566h-52.344l27.205-54.701
		c0.224-0.499,0.395-1.006,0.586-1.521l22.602,3.79l45.426,7.604L237.77,299.292c-4.396-1.995-9.192-3.915-18.093-3.915
		c-9.586,0-14.444,2.22-19.135,4.372c-4.483,2.044-8.722,3.99-17.398,3.99c-8.677,0-12.915-1.945-17.399-3.99
		c-4.695-2.152-9.548-4.372-19.14-4.372c-9.594,0-14.444,2.22-19.144,4.372c-4.488,2.044-8.722,3.99-17.402,3.99
		s-12.915-1.945-17.399-3.99c-4.7-2.152-9.548-4.372-19.135-4.372c-9.594,0-14.448,2.22-19.14,4.372
		c-4.484,2.044-8.722,3.99-17.402,3.99c-8.677,0-12.915-1.945-17.395-3.99c-4.695-2.152-9.548-4.372-19.144-4.372
		c-0.158,0-0.287,0.008-0.444,0.017v1.704v1.704v0.764v1.704v1.704c0.153,0,0.287-0.008,0.444-0.008
		c8.684,0,12.924,1.937,17.402,3.99c4.696,2.144,9.549,4.372,19.136,4.372c9.594,0,14.444-2.228,19.14-4.372
		c4.48-2.053,8.718-3.99,17.402-3.99c8.673,0,12.911,1.937,17.395,3.99c4.695,2.144,9.553,4.372,19.14,4.372
		c9.59,0,14.448-2.228,19.139-4.372c4.488-2.053,8.726-3.99,17.407-3.99c8.68,0,12.919,1.937,17.402,3.99
		c4.692,2.144,9.541,4.372,19.136,4.372c9.586,0,14.444-2.228,19.135-4.372c4.484-2.053,8.722-3.99,17.398-3.99
		c6.292,0,10.222,1.031,13.63,2.369l-15.566,21.093c-2.048,2.775-6.607,9.89-10.342,9.117c-2.622-0.54-6.504-1.995-10.057-2.618
		c-1.77-0.308-4.055,0.39-6.989,4.413c-3.881,5.319-50.857,68.913-50.857,68.913c-2.967,4.388,1.392,13.164,12.491,21.366
		c11.112,8.186,20.785,9.773,24.106,5.635c49.839-67.583,43.714-59.314,50.852-68.905c2.976-3.989,2.976-6.382,2.165-7.978
		c-1.641-3.216-4.184-6.49-5.472-8.842c-1.833-3.341,3.615-9.79,5.668-12.566l18.084-24.509c2.493,0.499,5.264,0.873,8.834,0.873
		c9.586,0,14.44-2.228,19.139-4.372c4.484-2.053,8.718-3.99,17.398-3.99c8.677,0,12.915,1.937,17.399,3.99
		c4.691,2.144,9.548,4.372,19.139,4.372c9.594,0,14.444-2.228,19.144-4.372c4.48-2.053,8.718-3.99,17.403-3.99
		c8.677,0,12.915,1.937,17.399,3.99c4.691,2.144,9.548,4.372,19.139,4.372c9.594,0,14.448-2.228,19.148-4.372
		c4.479-2.053,8.718-3.99,17.398-3.99c8.676,0,12.915,1.937,17.398,3.99c4.692,2.144,9.549,4.372,19.136,4.372
		c9.59,0,14.44-2.228,19.135-4.372c4.488-2.053,8.722-3.99,17.399-3.99v-1.704v-1.703v-0.774v-1.704v-1.704
		C502.413,295.377,497.556,297.597,492.864,299.749z"/>
</g>
</svg>