<?xml version="1.0" ?><svg id="Layer_1" style="enable-background:new 0 0 64 64;" version="1.1" viewBox="0 0 64 64" xml:space="preserve" xmlns="http://www.w3.org/2000/svg" xmlns:xlink="http://www.w3.org/1999/xlink"><path fill="#102B3F" d="M63.96283,6.99941l-6.32867-0.79352L56.98942,0.0459c0-0.03974-0.04959-0.05958-0.07935-0.02982L49.0042,7.92194  l0.58498,5.05091l-2.81949,2.81956c-4.97144-4.62396-11.62744-7.45994-18.9363-7.45994C12.48612,8.33247,0,20.81858,0,36.16536  s12.48612,27.83289,27.83339,27.83289s27.83339-12.48612,27.83339-27.83289c0-7.30905-2.83635-13.96517-7.46081-18.93667  l2.81906-2.81912l5.05178,0.58504l7.90593-7.90587C64.01242,7.05892,64.00256,7.00939,63.96283,6.99941z M53.63535,36.16536  c0,14.22691-11.57455,25.80146-25.80196,25.80146S2.03142,50.39227,2.03142,36.16536s11.57455-25.80147,25.80196-25.80147  c6.74893,0,12.89795,2.6076,17.50064,6.86418l-3.06592,3.06598c-3.8163-3.47105-8.8718-5.60452-14.43819-5.60452  c-11.86351,0-21.48227,9.60866-21.48227,21.47217s9.61876,21.48227,21.48227,21.48227s21.48233-9.61876,21.48233-21.48227  c0-5.56553-2.13495-10.61805-5.60743-14.4318l3.06549-3.06555C51.02738,23.26711,53.63535,29.4163,53.63535,36.16536z   M33.32495,36.1617c0,3.03697-2.45807,5.49497-5.49504,5.49497c-3.0268,0-5.48481-2.458-5.48481-5.49497  c0-3.0268,2.45801-5.48487,5.48481-5.48487c1.15036,0,2.21586,0.35498,3.09797,0.95769l-2.9622,2.96227  c-0.04333-0.00378-0.08518-0.01352-0.12932-0.01352c-0.85701,0-1.5811,0.7231-1.5811,1.57812  c0,0.85602,0.72409,1.57912,1.5811,1.57912c0.85502,0,1.57713-0.7231,1.57713-1.57912c0-0.04321-0.00961-0.08419-0.0132-0.12665  l2.96493-2.96506C32.96929,33.95068,33.32495,35.01437,33.32495,36.1617z M34.73662,27.82566  c-1.87421-1.55506-4.28045-2.49148-6.9067-2.49148c-5.97239,0-10.82746,4.85513-10.82746,10.82753  c0,5.98256,4.85507,10.82746,10.82746,10.82746c5.98256,0,10.82753-4.8449,10.82753-10.82746  c0-2.62012-0.9332-5.02463-2.48516-6.89908l3.76875-3.76887c2.51256,2.84671,4.0489,6.57404,4.0489,10.66795  c0,8.92809-7.23186,16.15995-16.16002,16.15995c-8.91792,0-16.14978-7.23186-16.14978-16.15995  c0-8.91798,7.23186-16.14985,16.14978-16.14985c4.09756,0,7.82664,1.53553,10.67446,4.04605L34.73662,27.82566z"/></svg>