<?xml version="1.0" ?><svg id="Layer_1" style="enable-background:new 0 0 24 24;" version="1.1" viewBox="0 0 24 24" xml:space="preserve" xmlns="http://www.w3.org/2000/svg" xmlns:xlink="http://www.w3.org/1999/xlink"><style type="text/css">
	.st0{fill:none;stroke:#102B3F;stroke-width:1.6724;stroke-linecap:round;stroke-linejoin:round;stroke-miterlimit:10;}
	.st1{fill:none;stroke:#102B3F;stroke-width:1.5;stroke-linecap:round;stroke-linejoin:round;stroke-miterlimit:10;}
	.st2{fill:none;stroke:#102B3F;stroke-width:1.5;stroke-linejoin:round;stroke-miterlimit:10;}
</style><g><g><path fill="#102B3F" d="M11.8,0v1.5l10.2,0c0.3,0,0.5,0.2,0.5,0.5v4.1c0,0.3-0.2,0.5-0.5,0.5l-10.2,0c-0.3,0-0.5-0.2-0.5-0.5V2    c0-0.3,0.2-0.5,0.5-0.5V0 M11.8,0c-1.1,0-2,0.9-2,2v4.1c0,1.1,0.9,2,2,2l10.2,0c1.1,0,2-0.9,2-2V2c0-1.1-0.9-2-2-2L11.8,0L11.8,0z    "/></g><g><path fill="#102B3F" d="M2,1.5l3.6,0c0.3,0,0.5,0.2,0.5,0.5l0,8.5c0,0.2-0.1,0.3-0.1,0.4C5.9,10.9,5.8,11,5.6,11L2,11c-0.3,0-0.5-0.2-0.5-0.5V2    c0-0.2,0.1-0.3,0.1-0.4C1.7,1.6,1.8,1.5,2,1.5C2,1.5,2,1.5,2,1.5 M2,0C0.9,0,0,0.9,0,2v8.5c0,1.1,0.9,2,2,2l3.6,0c1.1,0,2-0.9,2-2    l0-8.5c0-1.1-0.9-2-2-2L2,0L2,0z"/></g><g><path fill="#102B3F" d="M11.8,10.4v1.5l10.2,0c0.3,0,0.5,0.2,0.5,0.5V22c0,0.2-0.1,0.3-0.1,0.4c-0.1,0.1-0.2,0.1-0.4,0.1l-10.2,0    c-0.3,0-0.5-0.2-0.5-0.5v-9.6c0-0.3,0.2-0.5,0.5-0.5V10.4 M11.8,10.4c-1.1,0-2,0.9-2,2V22c0,1.1,0.9,2,2,2L22,24c1.1,0,2-0.9,2-2    v-9.6c0-1.1-0.9-2-2-2L11.8,10.4L11.8,10.4z"/></g><g><path fill="#102B3F" d="M2,16.3L2,16.3l3.6,0c0.3,0,0.5,0.2,0.5,0.5V22c0,0.3-0.2,0.5-0.5,0.5l-3.6,0c-0.3,0-0.5-0.2-0.5-0.5l0-5.2    C1.5,16.5,1.7,16.3,2,16.3 M2,14.8c-1.1,0-2,0.9-2,2L0,22c0,1.1,0.9,2,2,2l3.6,0c1.1,0,2-0.9,2-2v-5.2c0-1.1-0.9-2-2-2L2,14.8    L2,14.8z"/></g></g></svg>